PathFileType	4	(X/Y/Z)	C:\Users\Basilio\Documents\Thesis Gigler\squatting_fais\c3dfiles\076\SJ_pre4\markers_experimental.trc
DataRate	CameraRate	NumFrames	NumMarkers	Units	OrigDataRate	OrigDataStartFrame	OrigNumFrames
200.000000	200.000000	4	61	mm	200.000000	1165	1864
Frame#	Time	FHD			LBHD			RBHD			C7			T10			CLAV			LSHO			LUUPA			LMUPA			LDUPA			LLEP			LMEP			LRAD			LUL			LRFIN			RSHO			RUPA1			RMUPA			RDUPA			RLEP			RMEP			RRAD			RUL			RUFIN			LASI			RASI			USACR			LSACR			RSACR			LTHI1			LTHI2			LTHI3			LTHI4			LLFC			LMFC			LTIB1			LTIB2			LTIB3			LTIB4			LLMAL			LMMAL			LHEE			LMT1			LMT2			LMT5			RTHI			RTHI2			RTHI3			RTHI4			RLFC			RMFC			RTIB1			RTIB2			RTIB3			RTIB4			RLMAL			RMMAL			RHEE			RMT1			RMT2			RMT5			
		X1	Y1	Z1	X2	Y2	Z2	X3	Y3	Z3	X4	Y4	Z4	X5	Y5	Z5	X6	Y6	Z6	X7	Y7	Z7	X8	Y8	Z8	X9	Y9	Z9	X10	Y10	Z10	X11	Y11	Z11	X12	Y12	Z12	X13	Y13	Z13	X14	Y14	Z14	X15	Y15	Z15	X16	Y16	Z16	X17	Y17	Z17	X18	Y18	Z18	X19	Y19	Z19	X20	Y20	Z20	X21	Y21	Z21	X22	Y22	Z22	X23	Y23	Z23	X24	Y24	Z24	X25	Y25	Z25	X26	Y26	Z26	X27	Y27	Z27	X28	Y28	Z28	X29	Y29	Z29	X30	Y30	Z30	X31	Y31	Z31	X32	Y32	Z32	X33	Y33	Z33	X34	Y34	Z34	X35	Y35	Z35	X36	Y36	Z36	X37	Y37	Z37	X38	Y38	Z38	X39	Y39	Z39	X40	Y40	Z40	X41	Y41	Z41	X42	Y42	Z42	X43	Y43	Z43	X44	Y44	Z44	X45	Y45	Z45	X46	Y46	Z46	X47	Y47	Z47	X48	Y48	Z48	X49	Y49	Z49	X50	Y50	Z50	X51	Y51	Z51	X52	Y52	Z52	X53	Y53	Z53	X54	Y54	Z54	X55	Y55	Z55	X56	Y56	Z56	X57	Y57	Z57	X58	Y58	Z58	X59	Y59	Z59	X60	Y60	Z60	X61	Y61	Z61	

1166	5.825	-48.06713867187501	1570.050903320313	-909.324645996094	-196.4160766601563	1507.54541015625	-996.4329223632815	-175.99658203125	1518.194946289063	-845.6650390625002	-245.530746459961	1410.136596679688	-889.9819946289065	-356.8447570800782	1115.773681640625	-874.3489379882815	-123.0890655517578	1310.970458984375	-915.836364746094	-208.6416015625001	1350.6484375	-1070.636474609375	-270.0054321289063	1203.130004882813	-1192.907836914063	-267.8406372070313	1157.042358398438	-1173.354858398438	-297.1968078613282	1148.02099609375	-1225.903686523438	-327.3625183105469	1104.1513671875	-1251.97900390625	-404.6085205078126	1119.480834960938	-1210.928955078125	-369.4470214843751	942.6243896484377	-1073.687744140625	-342.4277954101563	896.4957275390627	-1110.783203125	-318.7808837890626	942.3099365234377	-1047.874145507813	-136.5750274658203	1346.096435546875	-746.0424804687501	-174.0425415039063	1230.006713867188	-590.2797851562501	-162.1729888916016	1181.810546875	-597.2982177734376	-191.2780456542969	1178.734497070313	-544.1511840820314	-208.8449249267579	1111.924072265625	-517.9023437500001	-293.1913757324219	1124.615478515625	-544.8607177734376	-295.0359191894532	954.2176513671877	-683.1551513671876	-250.0524139404297	948.4935302734377	-719.8350219726564	-251.8895874023438	910.5259399414065	-651.9851684570314	-277.1023864746094	905.1639404296877	-989.9389648437502	-249.4761810302735	894.9077758789065	-791.7244873046877	-394.1618041992189	1017.057189941406	-869.991638183594	-414.4008789062501	992.9213867187502	-897.5984497070315	-408.565399169922	990.1231079101565	-840.3775634765627	-351.2430114746094	779.9554443359377	-1072.856201171875	-297.8874206542969	714.8240966796876	-1089.1962890625	-250.5104980468751	727.7964477539064	-1078.470703125	-309.6218566894532	654.8960571289064	-1085.254028320313	-259.3676147460938	508.3390197753907	-1092.796508789063	-219.9631652832032	488.7742919921876	-984.0000000000002	-225.0938568115235	357.0833129882813	-1047.28466796875	-266.1612548828126	316.0451354980469	-1115.340698242188	-232.8913574218751	310.9819335937501	-1084.01025390625	-257.8243408203126	233.7848815917969	-1056.150268554688	-351.4804687500001	122.2661285400391	-1108.872802734375	-312.0288391113282	125.5757141113282	-1037.378173828125	-401.0550537109376	97.4657897949219	-1067.281982421875	-200.7745056152344	50.31831741333009	-1068.937255859375	-199.7441711425782	46.54572296142579	-1108.435668945313	-228.8331604003907	45.15892410278321	-1155.296875	-296.6179199218751	674.8024902343751	-675.2034912109376	-242.8191528320313	632.8552246093751	-670.5963745117189	-211.5299987792969	643.8436889648439	-679.7188110351564	-248.3811187744141	549.9902954101564	-680.5346679687501	-236.8446502685547	493.2644653320314	-681.6844482421876	-209.1658020019532	487.187469482422	-791.4328613281252	-219.3559112548829	353.9269104003907	-700.9920654296876	-310.6748962402344	294.6555480957032	-692.7805786132814	-266.1582031250001	280.0553283691407	-696.7321166992189	-259.7071838378907	233.5180816650391	-731.4271240234376	-364.5137939453126	109.4400100708008	-723.8961181640626	-330.9486389160157	127.3350219726563	-798.8950195312502	-416.0948486328126	95.47662353515626	-776.2746582031252	-215.4398651123047	51.2351760864258	-775.753601074219	-216.3247375488282	48.95977020263673	-730.0959472656251	-252.8155212402344	32.83522415161134	-681.2505493164064	
1167	5.83	-47.32426834106446	1556.947631835938	-908.771667480469	-195.3536834716797	1493.963134765625	-995.7419433593752	-174.9364013671875	1504.593994140625	-844.8581542968752	-244.8024139404297	1396.567504882813	-889.2859497070315	-357.6244812011719	1102.157836914063	-874.292663574219	-122.4764480590821	1296.400756835938	-915.4072875976565	-207.9915161132813	1336.552734375	-1070.463989257813	-270.0200500488282	1188.968627929688	-1192.778198242188	-268.4143371582032	1143.140625	-1173.148803710938	-297.8164367675782	1134.2763671875	-1225.732788085938	-327.5120849609376	1090.661010742188	-1251.932861328125	-405.1174316406251	1106.37744140625	-1210.953369140625	-370.8883056640626	929.2705688476565	-1074.16455078125	-343.6455688476563	883.336120605469	-1111.196166992188	-320.3574523925782	929.321228027344	-1048.226806640625	-135.7034149169922	1331.513061523438	-745.6594848632814	-173.8730010986328	1215.480712890625	-589.9957275390626	-162.8427886962891	1166.988647460938	-597.0202026367189	-191.5951690673828	1164.367553710938	-543.7257690429689	-209.9107055664063	1097.679809570313	-517.5589599609376	-294.1003723144532	1111.081176757813	-544.4031372070314	-296.7745971679688	941.1773681640627	-683.0301513671876	-251.7037811279297	935.376403808594	-719.8974609375001	-253.5767364501954	897.1858520507815	-652.3629150390626	-277.9398803710938	892.0789794921877	-990.6535644531252	-251.8101043701172	882.0656738281252	-791.7895507812502	-396.3139953613282	1004.258056640625	-870.3361816406252	-417.0245666503907	980.290222167969	-897.934753417969	-410.9951477050782	977.2840576171877	-840.7498779296877	-351.5505371093751	768.8499145507815	-1073.562866210938	-296.7826232910157	704.9285278320314	-1090.307373046875	-249.8761444091797	717.9811401367189	-1079.058959960938	-307.8350219726563	644.6202392578126	-1086.92431640625	-252.6048431396485	500.3748474121095	-1095.7890625	-215.9237213134766	480.6172180175782	-986.5991821289065	-225.5579071044922	348.7226562500001	-1048.2041015625	-267.6881408691407	308.3988342285157	-1115.974975585938	-234.5715942382813	302.2793884277344	-1084.558959960938	-262.2166137695313	226.469711303711	-1055.625732421875	-357.8262939453126	118.7856597900391	-1107.945922851563	-319.8843078613282	121.1192855834961	-1036.435913085938	-407.729949951172	87.43286895751955	-1064.965087890625	-203.5287322998047	51.78477096557619	-1070.462280273438	-203.4464263916016	48.52622604370119	-1110.235473632813	-230.0988311767579	44.0372657775879	-1157.1806640625	-293.7552185058594	665.2397460937501	-673.5383300781251	-239.3536834716797	624.2586059570314	-669.5755004882814	-207.9322357177735	635.9030151367189	-678.0498046875001	-242.4334869384766	541.7385864257814	-678.1590576171876	-229.2714538574219	484.0224914550782	-678.9611816406251	-201.3860168457032	478.6892395019532	-789.1820068359377	-214.3957061767579	344.9005432128907	-700.3461914062501	-306.5149536132813	287.0270996093751	-691.5381469726564	-262.2799072265626	271.7913513183594	-695.9158935546876	-257.6733093261719	225.674057006836	-731.9269409179689	-364.7249755859376	107.0332107543946	-723.2461547851564	-332.3871765136719	123.5975875854492	-799.1049804687502	-417.412078857422	89.61544036865236	-776.084411621094	-214.823226928711	50.77672195434572	-774.6729736328127	-215.9362792968751	50.05695724487306	-729.0086669921876	-252.1015777587891	32.06253051757813	-680.7170410156251	
1168	5.835	-46.57384872436524	1543.878295898438	-908.124938964844	-195.1403808593751	1479.796630859375	-994.6252441406252	-173.8803405761719	1491.110717773438	-844.1551513671877	-244.1527709960938	1383.075439453125	-888.7015380859377	-358.5747985839844	1088.470336914063	-874.5625610351565	-121.8427963256836	1281.862915039063	-915.057556152344	-207.851791381836	1322.607299804688	-1070.617797851563	-270.0225219726563	1174.861328125	-1192.537963867188	-269.1223144531251	1128.742919921875	-1172.861206054688	-298.0893859863282	1120.4453125	-1225.763549804688	-328.7241821289063	1077.274169921875	-1252.512573242188	-405.5977478027345	1093.391235351563	-1211.081909179688	-372.4149475097657	916.0292968750002	-1074.72900390625	-344.5205078125001	870.0064086914065	-1111.441162109375	-321.8822937011719	916.1809082031252	-1048.575561523438	-135.0471801757813	1317.164184570313	-745.0700073242189	-174.0288696289063	1200.780639648438	-589.6574707031251	-163.5955963134766	1152.36376953125	-596.6010131835939	-192.3278045654297	1149.971435546875	-543.7775268554689	-211.0088043212891	1083.70849609375	-517.2497558593751	-295.2342834472657	1097.464599609375	-543.9188842773439	-298.1324768066407	928.0457763671877	-682.9169311523439	-253.3149414062501	922.1944580078127	-720.0294189453126	-255.0628509521485	884.0601806640627	-652.3524780273439	-281.1855773925782	878.9912719726565	-989.668151855469	-255.3207550048829	868.7734375000002	-791.2127685546877	-398.6715393066407	991.4346313476565	-870.5848388671877	-419.5931396484376	967.8201293945315	-898.1699218750002	-413.4859619140626	964.7637939453127	-841.115905761719	-352.4219055175782	758.6043701171876	-1074.650146484375	-296.3069152832032	696.3941040039064	-1091.630126953125	-249.6197662353516	709.4319458007814	-1079.150390625	-305.7179260253907	635.4949340820314	-1088.377685546875	-245.9065856933594	493.2043457031251	-1098.84228515625	-211.5437164306641	473.5071716308595	-988.9980468750002	-226.0520629882813	340.2324218750001	-1047.80126953125	-264.4589843750001	299.4473876953126	-1117.425903320313	-233.6907501220704	293.2507629394532	-1083.347900390625	-264.4932250976563	218.6643371582032	-1055.33544921875	-360.8360900878907	115.5986709594727	-1108.20263671875	-322.6178588867188	116.316520690918	-1035.879028320313	-410.1417236328126	78.35426330566408	-1064.3583984375	-203.7523956298829	52.48720550537111	-1071.053588867188	-203.7761230468751	49.81198883056642	-1111.101928710938	-229.5733947753907	43.26354598999024	-1158.632080078125	-291.6469421386719	655.9819335937501	-672.0820312500001	-236.786117553711	616.0067138671876	-668.0117187500001	-205.5452423095704	628.1209716796876	-676.1770019531251	-237.9669799804688	533.2098999023439	-676.4240722656251	-223.6436462402344	475.4136657714845	-677.3979492187501	-194.7977752685547	470.6502380371095	-787.350036621094	-209.054428100586	336.1040649414063	-700.0070800781251	-301.6715393066407	279.0191955566407	-691.0743408203126	-257.4766235351563	263.4783325195313	-695.5366821289064	-254.8298950195313	218.2804107666016	-733.0297241210939	-363.0498962402344	103.6810455322266	-722.2191162109376	-331.3143920898438	118.6667938232422	-800.086364746094	-417.9297485351564	85.92834472656251	-775.8247070312502	-213.8714294433594	50.79429626464845	-773.156921386719	-215.5027923583985	49.82445526123048	-727.8801269531251	-251.5594635009766	31.05038070678712	-679.5969848632814	
1169	5.84	-45.69472122192384	1530.856201171875	-907.499694824219	-193.5969543457032	1467.007934570313	-994.1684570312502	-173.0111694335938	1477.975341796875	-843.5283813476565	-243.261703491211	1369.94384765625	-888.1506958007815	-359.6316528320313	1075.267456054688	-874.9847412109377	-120.9668426513672	1267.474853515625	-914.5606689453127	-206.4201812744141	1308.804565429688	-1070.119262695313	-269.9517517089844	1160.574584960938	-1192.238159179688	-269.9139709472657	1114.538940429688	-1172.837158203125	-298.5834045410157	1106.597778320313	-1225.801147460938	-329.1658020019532	1063.929565429688	-1252.48291015625	-406.0445556640626	1080.189697265625	-1211.363891601563	-373.7532348632813	902.8665161132815	-1075.268188476563	-346.3089904785157	857.2016601562502	-1112.104125976563	-323.7808532714844	903.1782836914065	-1048.844116210938	-134.3623199462891	1303.045166015625	-744.5531616210939	-174.3043823242188	1186.342651367188	-589.2712402343751	-164.3987426757813	1137.638793945313	-596.3359985351564	-193.0029449462891	1135.561889648438	-543.2643432617189	-212.2126770019532	1069.5234375	-517.1041870117189	-296.4344177246094	1083.439331054688	-543.7589721679689	-299.7365112304688	915.0339355468752	-683.0064697265626	-255.0878448486329	909.100769042969	-720.2126464843751	-257.0297851562501	870.5311279296877	-653.0156250000001	-283.3657226562501	866.1190185546877	-989.4132080078127	-258.3830566406251	856.3474731445315	-790.825866699219	-400.5718078613282	979.0894775390627	-871.1824340820315	-422.8847656250001	955.6959228515627	-898.1672973632815	-416.3039550781251	952.541442871094	-841.4754028320315	-353.3196105957032	748.7001342773439	-1076.011108398438	-295.5836181640626	687.8209228515626	-1092.933715820313	-249.4312591552735	701.5187988281251	-1079.740234375	-303.8267211914063	626.8446044921876	-1089.850708007813	-240.6604461669922	486.1046752929689	-1101.705688476563	-207.9485168457032	466.5639953613282	-991.6318969726565	-224.9091949462891	331.8890991210938	-1048.41796875	-260.5580749511719	290.4216003417969	-1118.593505859375	-231.6466674804688	284.4101257324219	-1082.06103515625	-264.7724304199219	210.9433746337891	-1054.91064453125	-361.1643981933594	108.5186538696289	-1109.943481445313	-322.5519104003907	110.7474060058594	-1035.363647460938	-411.6614379882814	72.48409271240236	-1065.777221679688	-203.5262756347657	51.83143615722658	-1072.474853515625	-203.4136962890626	50.50401687622072	-1112.030883789063	-229.9687042236329	42.78432083129884	-1159.599975585938	-290.4648132324219	646.5448608398439	-670.5529785156251	-235.2577514648438	607.3995361328126	-665.9475097656251	-203.8404846191407	620.1156616210939	-674.0323486328126	-234.4717559814454	524.5750732421876	-675.6715698242189	-219.6014556884766	467.0647277832032	-676.4359130859376	-187.9171142578125	462.5386352539064	-785.703063964844	-203.7940063476563	328.5848693847657	-699.9249877929689	-297.2701721191407	272.1920166015626	-690.3680419921876	-253.2131958007813	256.6877136230469	-696.4523315429689	-252.3161163330079	212.3308868408204	-735.2276000976564	-360.6915893554688	98.32463073730472	-721.1711425781251	-329.5489196777344	113.3651809692383	-801.0713500976565	-418.8563232421876	82.37107086181642	-776.7799072265627	-213.978500366211	50.49349212646486	-773.5465087890627	-215.7478179931641	49.51719665527345	-728.0794677734376	-251.5100250244141	30.83555603027344	-679.5445556640626	
